<svg width="96" height="96" viewBox="0 0 96 96" fill="none" xmlns="http://www.w3.org/2000/svg">
<g clip-path="url(#clip0_290_59)">
<path d="M32.3268 57.0682C32.3268 60.1853 29.7805 62.7317 26.6634 62.7317C23.5463 62.7317 21 60.1853 21 57.0682C21 53.9512 23.5463 51.4049 26.6634 51.4049H32.3268V57.0682Z" fill="#E01E5A"/>
<path d="M35.1804 57.0682C35.1804 53.9512 37.7268 51.4049 40.8438 51.4049C43.9609 51.4049 46.5072 53.9512 46.5072 57.0682V71.2488C46.5072 74.3659 43.9609 76.9122 40.8438 76.9122C37.7268 76.9122 35.1804 74.3659 35.1804 71.2488V57.0682Z" fill="#E01E5A"/>
<path d="M40.8438 34.3268C37.7268 34.3268 35.1804 31.7805 35.1804 28.6634C35.1804 25.5463 37.7268 23 40.8438 23C43.9609 23 46.5072 25.5463 46.5072 28.6634V34.3268H40.8438Z" fill="#36C5F0"/>
<path d="M40.8439 37.1805C43.961 37.1805 46.5073 39.7269 46.5073 42.8439C46.5073 45.961 43.961 48.5073 40.8439 48.5073H26.6634C23.5463 48.5073 21 45.961 21 42.8439C21 39.7269 23.5463 37.1805 26.6634 37.1805H40.8439Z" fill="#36C5F0"/>
<path d="M63.5854 42.8439C63.5854 39.7269 66.1318 37.1805 69.2489 37.1805C72.3659 37.1805 74.9123 39.7269 74.9123 42.8439C74.9123 45.961 72.3659 48.5073 69.2489 48.5073H63.5854V42.8439Z" fill="#2EB67D"/>
<path d="M60.7316 42.8439C60.7316 45.961 58.1853 48.5073 55.0682 48.5073C51.9511 48.5073 49.4048 45.961 49.4048 42.8439V28.6634C49.4048 25.5463 51.9511 23 55.0682 23C58.1853 23 60.7316 25.5463 60.7316 28.6634V42.8439Z" fill="#2EB67D"/>
<path d="M55.0682 65.5854C58.1853 65.5854 60.7316 68.1317 60.7316 71.2488C60.7316 74.3658 58.1853 76.9122 55.0682 76.9122C51.9511 76.9122 49.4048 74.3658 49.4048 71.2488V65.5854H55.0682Z" fill="#ECB22E"/>
<path d="M55.0682 62.7317C51.9511 62.7317 49.4048 60.1853 49.4048 57.0682C49.4048 53.9512 51.9511 51.4049 55.0682 51.4049H69.2487C72.3658 51.4049 74.9121 53.9512 74.9121 57.0682C74.9121 60.1853 72.3658 62.7317 69.2487 62.7317H55.0682Z" fill="#ECB22E"/>
</g>
<defs>
<clipPath id="clip0_290_59">
<rect width="54" height="54" fill="white" transform="translate(21 23)"/>
</clipPath>
</defs>
</svg>
