<svg width="96" height="96" viewBox="0 0 96 96" fill="none" xmlns="http://www.w3.org/2000/svg">
<g clip-path="url(#clip0_290_59)">
<path d="M28.8439 56.639C28.8439 60.4487 25.7317 63.561 21.922 63.561C18.1122 63.561 15 60.4487 15 56.639C15 52.8292 18.1122 49.7171 21.922 49.7171H28.8439V56.639Z" fill="#E01E5A"/>
<path d="M32.3318 56.639C32.3318 52.8292 35.444 49.7171 39.2537 49.7171C43.0635 49.7171 46.1757 52.8292 46.1757 56.639V73.9707C46.1757 77.7805 43.0635 80.8927 39.2537 80.8927C35.444 80.8927 32.3318 77.7805 32.3318 73.9707V56.639Z" fill="#E01E5A"/>
<path d="M39.2537 28.8439C35.444 28.8439 32.3318 25.7317 32.3318 21.922C32.3318 18.1122 35.444 15 39.2537 15C43.0635 15 46.1757 18.1122 46.1757 21.922V28.8439H39.2537Z" fill="#36C5F0"/>
<path d="M39.2537 32.3317C43.0634 32.3317 46.1756 35.444 46.1756 39.2537C46.1756 43.0635 43.0634 46.1756 39.2537 46.1756H21.922C18.1122 46.1756 15 43.0635 15 39.2537C15 35.444 18.1122 32.3317 21.922 32.3317H39.2537Z" fill="#36C5F0"/>
<path d="M67.0488 39.2537C67.0488 35.444 70.161 32.3317 73.9708 32.3317C77.7805 32.3317 80.8927 35.444 80.8927 39.2537C80.8927 43.0635 77.7805 46.1756 73.9708 46.1756H67.0488V39.2537Z" fill="#2EB67D"/>
<path d="M63.5609 39.2537C63.5609 43.0634 60.4487 46.1756 56.639 46.1756C52.8292 46.1756 49.717 43.0634 49.717 39.2537V21.922C49.717 18.1122 52.8292 15 56.639 15C60.4487 15 63.5609 18.1122 63.5609 21.922V39.2537Z" fill="#2EB67D"/>
<path d="M56.639 67.0488C60.4487 67.0488 63.5609 70.161 63.5609 73.9707C63.5609 77.7805 60.4487 80.8927 56.639 80.8927C52.8292 80.8927 49.717 77.7805 49.717 73.9707V67.0488H56.639Z" fill="#ECB22E"/>
<path d="M56.639 63.561C52.8292 63.561 49.717 60.4487 49.717 56.639C49.717 52.8292 52.8292 49.7171 56.639 49.7171H73.9707C77.7805 49.7171 80.8927 52.8292 80.8927 56.639C80.8927 60.4487 77.7805 63.561 73.9707 63.561H56.639Z" fill="#ECB22E"/>
</g>
<defs>
<clipPath id="clip0_290_59">
<rect width="66" height="66" fill="white" transform="translate(15 15)"/>
</clipPath>
</defs>
</svg>
