<svg width="123" height="123" viewBox="0 0 123 123" fill="none" xmlns="http://www.w3.org/2000/svg">
<path d="M25.8 77.5999C25.8 84.6999 20 90.5 12.9 90.5C5.8 90.5 0 84.6999 0 77.5999C0 70.4999 5.8 64.7 12.9 64.7H25.8V77.5999Z" fill="#E01E5A"/>
<path d="M32.3 77.5999C32.3 70.4999 38.1 64.7 45.2 64.7C52.3 64.7 58.1 70.4999 58.1 77.5999V109.9C58.1 117 52.3 122.8 45.2 122.8C38.1 122.8 32.3 117 32.3 109.9V77.5999Z" fill="#E01E5A"/>
<path d="M45.2 25.8C38.1 25.8 32.3 20 32.3 12.9C32.3 5.8 38.1 0 45.2 0C52.3 0 58.1 5.8 58.1 12.9V25.8H45.2Z" fill="#36C5F0"/>
<path d="M45.2 32.3C52.3 32.3 58.1 38.1001 58.1 45.2001C58.1 52.3001 52.3 58.1 45.2 58.1H12.9C5.8 58.1 0 52.3001 0 45.2001C0 38.1001 5.8 32.3 12.9 32.3H45.2Z" fill="#36C5F0"/>
<path d="M97 45.2001C97 38.1001 102.8 32.3 109.9 32.3C117 32.3 122.8 38.1001 122.8 45.2001C122.8 52.3001 117 58.1 109.9 58.1H97V45.2001Z" fill="#2EB67D"/>
<path d="M90.5 45.2C90.5 52.3 84.7 58.1 77.6 58.1C70.5 58.1 64.7 52.3 64.7 45.2V12.9C64.7 5.8 70.5 0 77.6 0C84.7 0 90.5 5.8 90.5 12.9V45.2Z" fill="#2EB67D"/>
<path d="M77.6 97C84.7 97 90.5 102.8 90.5 109.9C90.5 117 84.7 122.8 77.6 122.8C70.5 122.8 64.7 117 64.7 109.9V97H77.6Z" fill="#ECB22E"/>
<path d="M77.6 90.5C70.5 90.5 64.7 84.6999 64.7 77.5999C64.7 70.4999 70.5 64.7 77.6 64.7H109.9C117 64.7 122.8 70.4999 122.8 77.5999C122.8 84.6999 117 90.5 109.9 90.5H77.6Z" fill="#ECB22E"/>
</svg>
