<svg width="96" height="96" viewBox="0 0 96 96" fill="none" xmlns="http://www.w3.org/2000/svg">
<g clip-path="url(#clip0_290_61)">
<path d="M66.7432 31.4276C63.1954 29.8033 59.4499 28.6509 55.6026 28C55.0761 28.9411 54.5998 29.9095 54.1755 30.9009C50.0774 30.2833 45.9098 30.2833 41.8117 30.9009C41.3872 29.9096 40.9108 28.9413 40.3846 28C36.5348 28.6564 32.7869 29.8115 29.2354 31.4361C22.185 41.8674 20.2737 52.0396 21.2293 62.0675C25.3583 65.1181 29.9797 67.4382 34.8928 68.9269C35.9991 67.4389 36.978 65.8604 37.8192 64.2081C36.2215 63.6114 34.6795 62.8752 33.2109 62.008C33.5974 61.7277 33.9754 61.4389 34.3407 61.1586C38.6139 63.1681 43.2778 64.2101 48 64.2101C52.7221 64.2101 57.386 63.1681 61.6592 61.1586C62.0287 61.4601 62.4068 61.7489 62.789 62.008C61.3176 62.8766 59.7727 63.6142 58.1722 64.2124C59.0123 65.8639 59.9913 67.4411 61.0986 68.9269C66.0159 67.4442 70.6409 65.1252 74.7706 62.0717V62.0717C75.8919 50.4427 72.8551 40.3639 66.7432 31.4276ZM39.0297 55.9004C36.3666 55.9004 34.1665 53.4837 34.1665 50.5106C34.1665 47.5375 36.2902 45.0996 39.0212 45.0996C41.7522 45.0996 43.9353 47.5375 43.8886 50.5106C43.8419 53.4837 41.7437 55.9004 39.0297 55.9004ZM56.9702 55.9004C54.3029 55.9004 52.1113 53.4837 52.1113 50.5106C52.1113 47.5375 54.235 45.0996 56.9702 45.0996C59.7055 45.0996 61.8716 47.5375 61.8249 50.5106C61.7782 53.4837 59.6842 55.9004 56.9702 55.9004Z" fill="white"/>
</g>
<defs>
<clipPath id="clip0_290_61">
<rect width="54" height="40.9269" fill="white" transform="translate(21 28)"/>
</clipPath>
</defs>
</svg>
