<svg width="96" height="96" viewBox="0 0 96 96" fill="none" xmlns="http://www.w3.org/2000/svg">
<g clip-path="url(#clip0_290_61)">
<path d="M70.9084 27.1892C66.5721 25.204 61.9944 23.7956 57.2921 23C56.6486 24.1503 56.0664 25.3338 55.5478 26.5455C50.539 25.7908 45.4453 25.7908 40.4365 26.5455C39.9177 25.3339 39.3355 24.1504 38.6923 23C33.9869 23.8023 29.4062 25.214 25.0655 27.1996C16.4483 39.949 14.1123 52.3818 15.2803 64.638C20.3268 68.3666 25.9752 71.2023 31.9801 73.0217C33.3323 71.2032 34.5287 69.2739 35.5568 67.2544C33.6041 66.525 31.7194 65.6252 29.9244 64.5654C30.3968 64.2227 30.8588 63.8698 31.3053 63.5271C36.5281 65.9833 42.2285 67.2568 47.9999 67.2568C53.7714 67.2568 59.4718 65.9833 64.6946 63.5271C65.1462 63.8957 65.6083 64.2487 66.0755 64.5654C64.2771 65.627 62.3889 66.5285 60.4327 67.2596C61.4595 69.2781 62.6561 71.2058 64.0094 73.0217C70.0194 71.2096 75.6722 68.3753 80.7196 64.6432V64.6432C82.0901 50.4299 78.3784 38.1114 70.9084 27.1892ZM37.0363 57.1005C33.7815 57.1005 31.0924 54.1468 31.0924 50.513C31.0924 46.8792 33.688 43.8995 37.0259 43.8995C40.3638 43.8995 43.032 46.8792 42.9749 50.513C42.9178 54.1468 40.3534 57.1005 37.0363 57.1005ZM58.9636 57.1005C55.7036 57.1005 53.025 54.1468 53.025 50.513C53.025 46.8792 55.6205 43.8995 58.9636 43.8995C62.3067 43.8995 64.9542 46.8792 64.8971 50.513C64.84 54.1468 62.2807 57.1005 58.9636 57.1005Z" fill="white"/>
</g>
<defs>
<clipPath id="clip0_290_61">
<rect width="66" height="50.0217" fill="white" transform="translate(15 23)"/>
</clipPath>
</defs>
</svg>
